<svg xmlns="http://www.w3.org/2000/svg" xmlns:xlink="http://www.w3.org/1999/xlink" version="1.1" id="Capa_1" x="0px" y="0px" width="100px" height="100px" viewBox="0 0 100 100" enable-background="new 0 0 100 100" xml:space="preserve">
<g>
	<path d="M89.798,61.905v4.711h2.813v-4.711c0-5.653-4.596-10.249-10.246-10.249H51.412v-6.222   c9.39-0.743,16.781-8.583,16.781-18.16c0-10.074-8.164-18.234-18.235-18.234c-10.068,0-18.233,8.161-18.233,18.234   c0,9.608,7.442,17.465,16.872,18.164v6.217H17.639c-5.648,0-10.249,4.596-10.249,10.246v4.712h2.814v-4.712   c0-4.102,3.333-7.438,7.435-7.438h30.958v12.146h2.815V54.467h30.953C86.462,54.467,89.798,57.803,89.798,61.905z M49.962,16.145   c3.026,0,5.487,2.457,5.487,5.489c0,3.031-2.461,5.49-5.487,5.49c-3.034,0-5.491-2.458-5.491-5.49   C44.471,18.601,46.928,16.145,49.962,16.145z M44.495,36H44.05l-0.351,5.478C42.033,40.761,41,39.565,39,38.335v-2.144   C39,32.085,42.786,29,46.893,29h6.132C57.135,29,60,32.085,60,36.191v2.146c-1,1.232-2.57,2.424-4.234,3.141L55.872,36h-0.444   l-0.13,5.746c-1.664,0.621-3.457,0.888-5.337,0.888s-3.672-0.221-5.336-0.842L44.495,36z"/>
	<path d="M86.668,73.188c0,2.525,2.048,4.578,4.579,4.578c2.524,0,4.575-2.053,4.575-4.578c0-2.529-2.051-4.578-4.575-4.576   C88.716,68.611,86.668,70.66,86.668,73.188z"/>
	<path d="M93.801,79.127h-5.111c-3.424,0-6.196,2.773-6.196,6.197v5.636h3.694l0.131-6.101h0.369l0.138,6.101h8.847l0.135-6.101   h0.369l0.135,6.101H100v-5.636C100,81.9,97.229,79.127,93.801,79.127z"/>
	<path d="M54.577,73.188c0-2.529-2.05-4.578-4.575-4.576c-2.531,0-4.579,2.049-4.579,4.576c0,2.525,2.048,4.578,4.579,4.578   C52.527,77.766,54.577,75.713,54.577,73.188z"/>
	<path d="M52.557,79.127h-5.112c-3.425,0-6.198,2.773-6.198,6.197v5.636h3.696l0.13-6.101h0.371l0.135,6.101h8.848l0.134-6.101   h0.371l0.133,6.101h3.691v-5.636C58.755,81.9,55.982,79.127,52.557,79.127z"/>
	<circle cx="8.753" cy="73.188" r="4.577"/>
	<path d="M11.309,79.127H6.197C2.772,79.127,0,81.9,0,85.324v5.636h3.696l0.13-6.101h0.37l0.136,6.101h8.847l0.134-6.101h0.37   l0.134,6.101h3.692v-5.636C17.508,81.9,14.736,79.127,11.309,79.127z"/>
</g>
</svg>