<svg xmlns="http://www.w3.org/2000/svg" xmlns:xlink="http://www.w3.org/1999/xlink" version="1.1" id="Layer_1" x="0px" y="0px" width="100.5px" height="93.846px" viewBox="0 0 100.5 93.846" enable-background="new 0 0 100.5 93.846" xml:space="preserve">
<g id="BLOCK_x5F_RECORD">
	<g id="ARC_3_">
		<g id="XMLID_1_">
			<g>
				<path d="M63.67,39.313c2.28,3.92,2.28,10.29,0,14.209L49.75,80.793L35.83,53.523c-2.28-3.92-2.28-10.29,0-14.209l13.92-27.27      L63.67,39.313z M56,46.423c0-3.45-2.8-6.25-6.25-6.25s-6.25,2.8-6.25,6.25s2.8,6.25,6.25,6.25S56,49.873,56,46.423z"/>
				<path d="M49.75-3.577c27.61,0,50,22.38,50,50c0,27.61-22.39,50-50,50c-27.62,0-50-22.39-50-50      C-0.25,18.803,22.13-3.577,49.75-3.577z M93.5,46.423c0-24.16-19.59-43.75-43.75-43.75S6,22.263,6,46.423      s19.59,43.75,43.75,43.75S93.5,70.583,93.5,46.423z"/>
			</g>
			<g>
			</g>
		</g>
	</g>
</g>
</svg>